<?xml version="1.0" encoding="UTF-8"?>
<svg xmlns="http://www.w3.org/2000/svg" id="Icons" viewBox="0 0 60 60" width="512" height="512"><path d="M12.034,36.032a10.345,10.345,0,0,0-4.65,3.542,6.86,6.86,0,0,0-.527,6.34C10.4,55.92,16.424,57,18.85,57c1.672,0,5.873-1.628,9.051-4.862a2.987,2.987,0,0,0,4.2,0C35.277,55.372,39.478,57,41.15,57c2.426,0,8.451-1.08,11.994-11.087a6.862,6.862,0,0,0-.528-6.339,10.345,10.345,0,0,0-4.65-3.542c6.239-.57,11.008-3.154,11.851-14.327.4-5.227.14-9.358-.762-12.28A6.556,6.556,0,0,0,51.5,5.119C43.41,6.752,35.981,16.013,31.473,22.88c1.926-9.3,9.213-18.141,9.3-18.239a1,1,0,0,0-1.537-1.282c-.324.39-6.729,8.159-9.232,17.106-2.5-8.947-8.908-16.716-9.232-17.106a1,1,0,0,0-1.537,1.282c.083.1,7.37,8.943,9.3,18.239C24.019,16.013,16.59,6.752,8.5,5.119A6.552,6.552,0,0,0,.945,9.425c-.9,2.922-1.159,7.053-.762,12.28C1.026,32.879,5.794,35.462,12.034,36.032ZM30,51a1,1,0,0,1-1-1V28a1,1,0,0,1,2,0V50A1,1,0,0,1,30,51ZM51.9,7.08a4.539,4.539,0,0,1,5.249,2.935c.827,2.68,1.055,6.563.678,11.54-.961,12.723-6.891,12.675-15.9,12.624q-.919-.008-1.87-.009a1,1,0,0,0-.068,2c.084.006,8.408.617,10.965,4.508a4.9,4.9,0,0,1,.311,4.57C48.142,54.05,43.151,55,41.15,55c-.978,0-5.2-1.466-8.166-4.846,0-.052.016-.1.016-.154V28a2.984,2.984,0,0,0-1-2.224C35.529,20.117,43.547,8.765,51.9,7.08ZM2.855,10.015A4.531,4.531,0,0,1,8.1,7.08c8.351,1.685,16.369,13.037,19.9,18.7A2.984,2.984,0,0,0,27,28V50c0,.052.013.1.016.154C24.049,53.534,19.828,55,18.85,55c-2,0-6.992-.95-10.107-9.753a4.9,4.9,0,0,1,.31-4.571c2.557-3.891,10.881-4.5,10.965-4.508a1,1,0,0,0-.068-2q-.949,0-1.87.009c-9,.054-14.943.1-15.9-12.624C1.8,16.578,2.028,12.7,2.855,10.015Z"/></svg>
