<?xml version="1.0"?>
<svg xmlns="http://www.w3.org/2000/svg" data-name="Layer 1" id="Layer_1" viewBox="0 0 100 100"><path d="M76.09,56.11c-.67-.46-1.37-.24-2,.67a61.53,61.53,0,0,1-9.38,9.91,7.2,7.2,0,0,1-.86.56c-.1-.65-.18-1.12-.25-1.59-.39-2.48-.63-5-1.2-7.45a185.83,185.83,0,0,0-7.51-24.4A51.2,51.2,0,0,0,43.82,16.42a21.13,21.13,0,0,0-9.63-6.17c-5.94-1.6-11.25.61-14.1,6.06a22.39,22.39,0,0,0-1.91,5.42c-1.17,5.18-.68,10.35.44,15.47a68.24,68.24,0,0,0,8.45,21.49c-.64.74-1.16,1.35-1.7,1.94a17.49,17.49,0,0,0-4.16,7.16A10.2,10.2,0,0,0,26.08,80a16.23,16.23,0,0,0,2.76,1.31,36.54,36.54,0,0,0,16,1.64c2-.18,4-.64,6-1-.69,1.84-1.36,3.58-2,5.33a3.33,3.33,0,0,0-.27,1.56,2,2,0,0,0,.87,1.21A1.16,1.16,0,0,0,51,89.69a5.75,5.75,0,0,0,.64-1.29c.73-1.78,1.38-3.6,2.18-5.35a5.14,5.14,0,0,1,4.32-3.18c2.19-.21,4.38-.35,6.56-.58a21.17,21.17,0,0,0,7.43-1.9,9.45,9.45,0,0,0,2.71-2,3.6,3.6,0,0,0-1.22-5.89A7.9,7.9,0,0,0,71.18,69c-2-.22-3.87.5-5.81,1,.1-.24.32-.32.46-.46,2.88-2.89,5.77-5.76,8.59-8.68a15.13,15.13,0,0,0,1.9-2.59A1.48,1.48,0,0,0,76.09,56.11Zm-21.58,21a31.36,31.36,0,0,1-18,2.81,46.3,46.3,0,0,1-6.27-1.33,9.63,9.63,0,0,1-4.3-2.43,6.82,6.82,0,0,1-2.06-6.59,14.37,14.37,0,0,1,5.21-8.29c.63.69,1.18,1.33,1.77,1.93a17.64,17.64,0,0,0,6.27,4.12,11.91,11.91,0,0,0,5.7.63,5.63,5.63,0,0,0,4.88-3.87,5.56,5.56,0,0,0-2.14-6,10.82,10.82,0,0,0-6.32-2.06,20.36,20.36,0,0,0-9.39,1.26c-.5-.8-1-1.49-1.4-2.24a66,66,0,0,1-7.61-22.57,26.34,26.34,0,0,1,.86-12.4A15.65,15.65,0,0,1,22.56,18c2.39-4.7,6.81-6.43,11.76-4.61A18.61,18.61,0,0,1,41,17.84,46.87,46.87,0,0,1,51.91,34.53a171.6,171.6,0,0,1,7.88,26c.52,2.45.77,5,1.16,7.46.3,1.93.73,2.41,2.74,3A60.86,60.86,0,0,1,54.51,77.15ZM31.8,59.81A16.88,16.88,0,0,1,42,59.67a5.59,5.59,0,0,1,2.34,1.59,2.14,2.14,0,0,1-.78,3.38A5.38,5.38,0,0,1,40,65,14,14,0,0,1,31.8,59.81ZM69.61,72a6.54,6.54,0,0,1,2.66.24.69.69,0,0,1,.26,1.26,5.15,5.15,0,0,1-1.84,1.22c-2,.61-4.12,1.11-6.2,1.57a26.64,26.64,0,0,1-3.07.31C63.93,74.33,66.46,72.58,69.61,72ZM82.49,24.87a33.63,33.63,0,0,1-2.36,11.67,149.63,149.63,0,0,1-8.56,17.08Q70.79,55,70,56.41a6.06,6.06,0,0,1-.61.94,1.37,1.37,0,0,1-1.86.4A1.35,1.35,0,0,1,66.88,56a14.15,14.15,0,0,1,1-1.86,176.28,176.28,0,0,0,9-17.55,30.18,30.18,0,0,0,2.54-10.41A14.34,14.34,0,0,0,78.61,20a4.61,4.61,0,0,0-5.42-3,13.35,13.35,0,0,0-7,3.7A31.45,31.45,0,0,0,60.43,29c-.33.61-.65,1.23-1,1.81a1.34,1.34,0,0,1-1.82.51,1.3,1.3,0,0,1-.45-1.84c2.28-4.56,4.6-9.1,8.79-12.3A15.14,15.14,0,0,1,73,14a7.46,7.46,0,0,1,8.23,4.49A16.47,16.47,0,0,1,82.49,24.87Z"/></svg>
