<svg id="Layer_1" enable-background="new 0 0 32 32" viewBox="0 0 32 32" xmlns="http://www.w3.org/2000/svg"><path d="m5.75 29.484c1.818-.466 3.551-1.151 5.178-2.016 2.126 1.574 4.685 2.009 7.18 1.288 3.469-1.002 6.321-4.054 7.825-8.371 3.228-9.265-2.771-17.347-3.027-17.687-.108-.145-.283-.219-.47-.193-.18.026-.332.148-.396.318-.016.041-1.626 4.161-7.35 8.064-4.132 2.817-6.781 6.786-6.914 10.358-.079 2.129.727 4.025 2.325 5.532-1.453.74-2.992 1.327-4.599 1.739-.268.068-.429.341-.36.608.069.27.346.427.608.36zm3.025-8.202c.122-3.261 2.604-6.927 6.479-9.569 4.492-3.063 6.554-6.238 7.331-7.706 1.347 2.131 4.931 8.798 2.404 16.049-1.396 4.007-4.004 6.828-7.157 7.739-2.081.602-4.16.286-5.935-.871.76-.452 1.492-.946 2.195-1.48l6.288-1.067c.271-.046.455-.305.409-.577-.047-.273-.31-.45-.577-.41l-4.575.776c1.434-1.297 2.709-2.773 3.79-4.401l3.616-.613c.271-.046.455-.305.409-.577-.047-.273-.311-.449-.577-.41l-2.738.465c.225-.385.442-.777.646-1.177 1.378-2.704 2.208-5.595 2.468-8.593.023-.275-.18-.517-.455-.541-.266-.024-.517.18-.541.455-.249 2.869-1.044 5.636-2.362 8.225-.148.29-.306.573-.465.855l-.714-5.016c-.038-.273-.297-.463-.565-.425-.273.039-.464.292-.425.565l.885 6.215c-1.205 1.817-2.664 3.435-4.32 4.817l-1.073-7.534c-.04-.273-.294-.464-.565-.425-.273.039-.464.292-.425.565l1.155 8.112c-.747.56-1.526 1.08-2.339 1.544-1.572-1.352-2.34-3.027-2.267-4.99z"/></svg>