<svg id="Layer_1" enable-background="new 0 0 500 500" viewBox="0 0 500 500" xmlns="http://www.w3.org/2000/svg"><g style="fill:none;stroke:#474747;stroke-linecap:round;stroke-linejoin:round;stroke-miterlimit:10;stroke-width:15"><path d="m130.588 351.688c0 62.958 51.037 113.995 113.995 113.995s113.995-51.037 113.995-113.995c0-85.077-113.995-221.196-113.995-221.196s-113.995 126.622-113.995 221.196z"/><path d="m170.896 381.503c1.645 3.718 3.563 7.288 5.728 10.685"/><path d="m214.267 231.2c-22.832 32.132-50.218 78.793-50.218 117.755"/><path d="m347.801 145.654c0 31.479 25.519 56.998 56.998 56.998s56.998-25.519 56.998-56.998c0-42.539-56.998-110.598-56.998-110.598s-56.998 63.311-56.998 110.598z"/><path d="m157.551 195.338c-20.069-39.556-50.995-76.484-50.995-76.484s-67.768 75.275-67.768 131.498c0 30.965 20.767 57.079 49.134 65.174"/></g></svg>