<?xml version="1.0" encoding="UTF-8"?>
<svg id="Layer_1" data-name="Layer 1" xmlns="http://www.w3.org/2000/svg" viewBox="0 0 1024 498.62">
  <g>
    <path d="M120.19,346.85c-.74,0-4.63-.03-11.67-.09-7.04-.06-16.03-.09-26.98-.09-7.19,0-14.04.03-20.52.09-6.49.06-11.98.09-16.46.09.12-10.54.23-21.21.32-32.03.09-10.81.14-21.42.14-31.84,0-17.4-.06-30.66-.18-39.79-.12-9.13-.22-15.53-.28-19.21h15.22c-.12,7.9-.22,17.02-.28,27.36-.06,10.34-.09,18.82-.09,25.43,0,16.1.03,29.54.09,40.31.06,10.77.09,16.47.09,17.08,2.52,0,5.56.02,9.13.05,3.57.03,6.79.05,9.68.05,11,0,20.58-.05,28.73-.14,8.15-.09,12.5-.14,13.05-.14v12.87Z" style="fill: #cfffff;"/>
    <path d="M224.87,346.85c-.55,0-4.64-.03-12.27-.09-7.62-.06-17.06-.09-28.31-.09-7.81,0-14.96.03-21.44.09-6.49.06-11.98.09-16.46.09.12-3.55.23-11.24.32-23.07.09-11.82.14-24.04.14-36.67,0-6.92-.03-16.08-.09-27.48-.06-11.39-.18-23.19-.37-35.38,4.37,0,9.82.03,16.37.09,6.55.06,13.29.09,20.24.09,11.74,0,21.3-.03,28.68-.09,7.38-.06,11.37-.09,11.99-.09v12.77c-.62,0-4.47-.05-11.57-.14s-15.94-.14-26.52-.14c-4.61,0-9.13.02-13.56.05-4.43.03-7.93.05-10.51.05,0,6.92-.06,13.83-.18,20.72-.12,6.89-.18,13.4-.18,19.53,2.77,0,6.04.02,9.82.05,3.78.03,7.15.05,10.1.05,10.82,0,20.49-.05,29.01-.14,8.52-.09,13.05-.14,13.6-.14v12.68c-.49,0-5.57-.05-15.22-.14-9.65-.09-18.48-.14-26.47-.14-2.95,0-6.47.02-10.56.05-4.09.03-7.52.05-10.28.05,0,11.58.03,20.77.09,27.57.06,6.8.12,12.5.18,17.09,3.63.06,8.02.11,13.19.14,5.17.03,10.73.05,16.69.05,9.16,0,16.86-.03,23.1-.09,6.24-.06,9.73-.09,10.47-.09v12.77Z" style="fill: #cfffff;"/>
    <path d="M337.67,266.08c0,8.95-2.9,17.03-8.7,24.26-5.8,7.23-13.55,12.13-23.25,14.7-4.18,1.1-8.73,1.9-13.68,2.39-4.94.49-10.45.74-16.53.74l.18,38.87h-15.22c.06-3.68.15-10.49.28-20.45.12-9.96.18-25.35.18-46.18,0-6.62-.03-14.73-.09-24.35-.06-9.62-.18-20.31-.37-32.07,2.64-.06,5.24-.09,7.78-.09h6.22c10.62,0,19.67.67,27.13,2.02,7.46,1.35,13.74,3.65,18.84,6.89,5.59,3.49,9.86,8.04,12.8,13.65,2.95,5.61,4.42,12.15,4.42,19.62ZM321.99,266.08c0-6.31-1.45-11.68-4.33-16.13-2.89-4.44-7.32-7.95-13.28-10.52-3.69-1.59-7.69-2.59-11.99-2.99s-8.73-.6-13.28-.6h-3.41c0,.67-.06,5.27-.18,13.78-.12,8.52-.18,15.25-.18,20.22,0,4.53.01,9.89.05,16.08.03,6.19.05,9.71.05,10.57h3.69c4.12,0,8.5-.28,13.14-.83,4.64-.55,8.62-1.56,11.94-3.03,5.78-2.45,10.19-5.85,13.23-10.2,3.04-4.35,4.57-9.8,4.57-16.36Z" style="fill: #cfffff;"/>
    <path d="M382.58,347.03h-15.22c.06-3.68.15-10.23.28-19.67.12-9.43.18-22.97.18-40.62,0-6.98-.03-16.14-.09-27.48-.06-11.33-.18-23.1-.37-35.29h15.22c-.12,8.76-.23,18.95-.32,30.55-.09,11.61-.14,21.09-.14,28.44,0,18.62.06,33.04.18,43.24.12,10.2.21,17.14.28,20.81Z" style="fill: #cfffff;"/>
  </g>
  <g id="Generative_Object" data-name="Generative Object">
    <path d="M429.6,107.79l15.33,11.34c12.68,11.66,21.47,25.92,28.77,41.46l13.76,32.78,5.75-17.58c7.49-28.77,17.75-57.9,42.35-74.8" style="fill: none; stroke: #e17855; stroke-linecap: round; stroke-linejoin: round; stroke-width: 11.76px;"/>
    <path d="M645.2,355.3c-9.55,13.31-42.08,70.74-58.33,72.36-9.78.97-18.49-3.03-26.37-8.21l-10.12-8.31c-10.31-9.75-17.14-21.8-23.97-33.97l-5.76-6.97" style="fill: none; stroke: #48b2c4; stroke-linecap: round; stroke-linejoin: round; stroke-width: 13.23px;"/>
    <path d="M349.08,362.35c4.39,23.7,17.05,44.58,34.75,60.97,10.41,9.64,23.24,15.45,37.09,15.5,16.84-1.99,27.92-12.66,37.61-26.29,9.76-13.73,12.29-27.96,20.42-39.75" style="fill: none; stroke: #48b2c4; stroke-linecap: round; stroke-linejoin: round; stroke-width: 13.23px;"/>
    <path d="M282.91,173.77c-2.61-17.94-8.87-33.76-19.04-48.79-8.34-12.33-17.13-31.75-7.24-41.82,15.06-15.33,51.6-10.64,72.91-5.25,35.33,8.92,65.66,29.06,88.9,57.18,32.86,39.78,49.78,87.89,66.07,135.77l7.09,17.77,14.3-48.37c6.07-20.55,13.33-39.76,22.35-59.29,10-21.67,22.28-41.16,37.36-59.67,5.23-3.93,8.37-8.84,13.11-13.17,28.43-26,64.35-41.49,102.61-43.65,9.82-.55,18.97.32,27.81,3.91,9.32,3.79,13.69,12.13,11.99,22.12-3.9,22.89-2.35,69.82-26.32,102.23" style="fill: none; stroke: #48b2c4; stroke-linecap: round; stroke-linejoin: round; stroke-width: 13.23px;"/>
    <g>
      <path d="M520.64,370.2c-.26-6.84,1.45-13.23,3.29-20.27l21.92-83.84c5.95-22.77,12.58-44.4,21.9-65.93,8.13-18.78,20.62-38.03,39.05-44.96" style="fill: none; stroke: #cfffff; stroke-linecap: round; stroke-linejoin: round; stroke-width: 13.23px;"/>
      <path d="M478.95,372.78c-.7-6.74-3.19-12.81-5.92-19.5l-33.07-80.9c-8.71-21.32-17.83-41.44-29.65-61.12-7.46-12.41-16.05-23.2-27.41-32.08-5.14-4.02-11.3-5.75-16.87-8.24" style="fill: none; stroke: #cfffff; stroke-linecap: round; stroke-linejoin: round; stroke-width: 13.23px;"/>
      <path d="M478.95,372.78l10.33,6.86c6.86,4.53,15.33,3.38,22.01-1.45l9.36-7.99" style="fill: none; stroke: #cfffff; stroke-linecap: round; stroke-linejoin: round; stroke-width: 13.23px;"/>
    </g>
  </g>
  <g>
    <path d="M669.69,339.87c-.55,0-4.63-.03-12.22-.09-7.6-.06-17-.09-28.21-.09-7.78,0-14.9.03-21.37.09-6.46.06-11.93.09-16.4.09.12-3.55.23-11.24.32-23.07.09-11.82.14-24.04.14-36.67,0-6.92-.03-16.08-.09-27.48-.06-11.39-.18-23.19-.37-35.38,4.35,0,9.79.03,16.31.09,6.52.06,13.25.09,20.17.09,11.7,0,21.23-.03,28.58-.09,7.35-.06,11.33-.09,11.95-.09v12.77c-.61,0-4.46-.05-11.53-.14-7.08-.09-15.88-.14-26.42-.14-4.59,0-9.1.02-13.51.05-4.41.03-7.9.05-10.48.05,0,6.92-.06,13.83-.18,20.72-.12,6.89-.18,13.4-.18,19.53,2.76,0,6.02.02,9.79.05,3.77.03,7.12.05,10.06.05,10.78,0,20.41-.05,28.9-.14,8.48-.09,13-.14,13.55-.14v12.68c-.49,0-5.54-.05-15.16-.14-9.62-.09-18.41-.14-26.37-.14-2.94,0-6.45.02-10.52.05-4.08.03-7.49.05-10.25.05,0,11.58.03,20.77.09,27.57.06,6.8.12,12.5.18,17.09,3.61.06,7.99.11,13.14.14,5.15.03,10.69.05,16.63.05,9.13,0,16.8-.03,23.02-.09,6.22-.06,9.7-.09,10.43-.09v12.77Z" style="fill: #cfffff;"/>
    <path d="M800.06,332.7l-11.5,9.46c-1.35-1.41-6.12-6.73-14.33-15.96-8.2-9.23-20.85-23.62-37.93-43.18l.09-.83c2.33-.61,5.42-1.95,9.28-4,3.86-2.05,7.11-4.28,9.75-6.67,2.27-2.08,4.24-4.66,5.93-7.72,1.69-3.07,2.53-7.17,2.53-12.32,0-4.72-1.24-8.78-3.72-12.19-2.48-3.4-5.9-5.9-10.25-7.5-3.55-1.35-7.29-2.16-11.21-2.44-3.92-.28-7.54-.41-10.84-.41-2.21,0-3.89.02-5.05.05-1.17.03-2.02.05-2.57.05-.12,11.65-.2,21.92-.23,30.81-.03,8.89-.05,15.18-.05,18.85,0,8.4.05,19.8.14,34.21.09,14.41.17,23.45.23,27.13h-15.16c.06-3.68.15-10.8.28-21.37.12-10.57.18-23.72.18-39.47v-17c0-8.27-.15-23.34-.46-45.21.61,0,3.67-.06,9.18-.18,5.51-.12,10.58-.18,15.24-.18,5.32,0,10.49.31,15.51.92,5.02.61,9.91,1.93,14.69,3.95,6.06,2.57,10.86,6.35,14.41,11.34,3.55,4.99,5.32,10.85,5.32,17.58,0,8.69-2.68,15.93-8.03,21.72-5.35,5.78-10.41,10.08-15.18,12.9v.46c8.4,9.81,17.6,19.93,27.62,30.36,10.02,10.43,15.4,16.04,16.13,16.83Z" style="fill: #cfffff;"/>
    <path d="M886.1,305.41c0,6.31-1.49,11.84-4.46,16.59-2.97,4.75-6.98,8.59-12.01,11.53-4.6,2.7-9.88,4.73-15.83,6.11-5.95,1.38-12.54,2.07-19.78,2.07-3.93,0-7.99-.12-12.19-.37-4.2-.25-6.64-.4-7.31-.46l-.74-13.23c.86.12,3.25.35,7.17.69,3.92.34,8.55.51,13.88.51,3.25,0,7.44-.43,12.59-1.29,5.15-.86,9.1-1.96,11.85-3.31,3.61-1.78,6.39-3.92,8.32-6.43,1.93-2.51,2.89-5.7,2.89-9.56,0-4.1-.96-7.58-2.89-10.43s-5.13-5.59-9.6-8.22c-2.88-1.71-6.62-3.64-11.21-5.79s-8.73-4.35-12.41-6.62c-6.25-3.8-10.71-7.95-13.37-12.45s-4-9.51-4-15.02,1.21-10.52,3.63-14.66c2.42-4.14,5.57-7.67,9.43-10.61,3.93-2.94,8.73-5.15,14.4-6.62,5.67-1.47,11.98-2.21,18.91-2.21,3.8,0,7.65.11,11.55.32,3.9.22,6.12.35,6.67.41l1.29,13.32c-.55-.06-2.79-.28-6.71-.64-3.92-.37-8.76-.55-14.52-.55-3.43,0-6.97.38-10.61,1.15-3.65.77-6.85,1.95-9.6,3.54-2.45,1.41-4.53,3.37-6.25,5.88-1.72,2.51-2.57,5.45-2.57,8.82,0,3,.9,5.9,2.71,8.68,1.81,2.79,5.19,5.65,10.15,8.59,2.51,1.53,5.84,3.29,9.97,5.28,4.13,1.99,8.19,4.15,12.18,6.48,6.12,3.62,10.74,7.77,13.83,12.45,3.09,4.69,4.64,10.03,4.64,16.04Z" style="fill: #cfffff;"/>
    <path d="M997.47,339.87c-.55,0-4.63-.03-12.22-.09-7.6-.06-17-.09-28.21-.09-7.78,0-14.9.03-21.37.09-6.46.06-11.93.09-16.4.09.12-3.55.23-11.24.32-23.07.09-11.82.14-24.04.14-36.67,0-6.92-.03-16.08-.09-27.48-.06-11.39-.18-23.19-.37-35.38,4.35,0,9.79.03,16.31.09,6.52.06,13.25.09,20.17.09,11.7,0,21.23-.03,28.58-.09,7.35-.06,11.33-.09,11.95-.09v12.77c-.61,0-4.46-.05-11.53-.14-7.08-.09-15.88-.14-26.42-.14-4.59,0-9.1.02-13.51.05-4.41.03-7.9.05-10.48.05,0,6.92-.06,13.83-.18,20.72-.12,6.89-.18,13.4-.18,19.53,2.76,0,6.02.02,9.79.05,3.77.03,7.12.05,10.06.05,10.78,0,20.41-.05,28.9-.14,8.48-.09,13-.14,13.55-.14v12.68c-.49,0-5.54-.05-15.16-.14-9.62-.09-18.41-.14-26.37-.14-2.94,0-6.45.02-10.52.05-4.08.03-7.49.05-10.25.05,0,11.58.03,20.77.09,27.57.06,6.8.12,12.5.18,17.09,3.61.06,7.99.11,13.14.14,5.15.03,10.69.05,16.63.05,9.13,0,16.8-.03,23.02-.09,6.22-.06,9.7-.09,10.43-.09v12.77Z" style="fill: #cfffff;"/>
  </g>
</svg>