<?xml version="1.0" encoding="UTF-8"?>
<svg id="Layer_1" data-name="Layer 1" xmlns="http://www.w3.org/2000/svg" viewBox="0 0 1024 498.62">
  <text transform="translate(23.08 347.03)" style="fill: #cfffff; font-family: Skia-Regular, Skia; font-size: 188.2px; font-variation-settings: &apos;wght&apos; 1, &apos;wdth&apos; 1;"><tspan x="0" y="0">LEPI</tspan></text>
  <g id="Generative_Object" data-name="Generative Object">
    <path d="M429.6,107.79l15.33,11.34c12.68,11.66,21.47,25.92,28.77,41.46l13.76,32.78,5.75-17.58c7.49-28.77,17.75-57.9,42.35-74.8" style="fill: none; stroke: #e17855; stroke-linecap: round; stroke-linejoin: round; stroke-width: 11.76px;"/>
    <path d="M645.2,355.3c-9.55,13.31-42.08,70.74-58.33,72.36-9.78.97-18.49-3.03-26.37-8.21l-10.12-8.31c-10.31-9.75-17.14-21.8-23.97-33.97l-5.76-6.97" style="fill: none; stroke: #48b2c4; stroke-linecap: round; stroke-linejoin: round; stroke-width: 13.23px;"/>
    <path d="M349.08,362.35c4.39,23.7,17.05,44.58,34.75,60.97,10.41,9.64,23.24,15.45,37.09,15.5,16.84-1.99,27.92-12.66,37.61-26.29,9.76-13.73,12.29-27.96,20.42-39.75" style="fill: none; stroke: #48b2c4; stroke-linecap: round; stroke-linejoin: round; stroke-width: 13.23px;"/>
    <path d="M282.91,173.77c-2.61-17.94-8.87-33.76-19.04-48.79-8.34-12.33-17.13-31.75-7.24-41.82,15.06-15.33,51.6-10.64,72.91-5.25,35.33,8.92,65.66,29.06,88.9,57.18,32.86,39.78,49.78,87.89,66.07,135.77l7.09,17.77,14.3-48.37c6.07-20.55,13.33-39.76,22.35-59.29,10-21.67,22.28-41.16,37.36-59.67,5.23-3.93,8.37-8.84,13.11-13.17,28.43-26,64.35-41.49,102.61-43.65,9.82-.55,18.97.32,27.81,3.91,9.32,3.79,13.69,12.13,11.99,22.12-3.9,22.89-2.35,69.82-26.32,102.23" style="fill: none; stroke: #48b2c4; stroke-linecap: round; stroke-linejoin: round; stroke-width: 13.23px;"/>
    <g>
      <path d="M520.64,370.2c-.26-6.84,1.45-13.23,3.29-20.27l21.92-83.84c5.95-22.77,12.58-44.4,21.9-65.93,8.13-18.78,20.62-38.03,39.05-44.96" style="fill: none; stroke: #cfffff; stroke-linecap: round; stroke-linejoin: round; stroke-width: 13.23px;"/>
      <path d="M478.95,372.78c-.7-6.74-3.19-12.81-5.92-19.5l-33.07-80.9c-8.71-21.32-17.83-41.44-29.65-61.12-7.46-12.41-16.05-23.2-27.41-32.08-5.14-4.02-11.3-5.75-16.87-8.24" style="fill: none; stroke: #cfffff; stroke-linecap: round; stroke-linejoin: round; stroke-width: 13.23px;"/>
      <path d="M478.95,372.78l10.33,6.86c6.86,4.53,15.33,3.38,22.01-1.45l9.36-7.99" style="fill: none; stroke: #cfffff; stroke-linecap: round; stroke-linejoin: round; stroke-width: 13.23px;"/>
    </g>
  </g>
  <text transform="translate(570.08 340.05)" style="fill: #cfffff; font-family: Skia-Regular, Skia; font-size: 188.2px; font-variation-settings: &apos;wght&apos; 1, &apos;wdth&apos; 1;"><tspan x="0" y="0">ERSE</tspan></text>
  <text/>
</svg>