<svg xmlns="http://www.w3.org/2000/svg" version="1.1" xmlns:xlink="http://www.w3.org/1999/xlink" width="512" height="512" x="0" y="0" viewBox="0 0 512 512" style="enable-background:new 0 0 512 512" xml:space="preserve" class=""><g><switch><g><path fill="#3a3a3a" d="M255.546 241.109a2.461 2.461 0 0 1-2.398-3.034c.51-2.136 12.792-52.606 40.065-79.88a2.462 2.462 0 1 1 3.483 3.483c-26.28 26.28-38.634 77.031-38.757 77.541a2.463 2.463 0 0 1-2.393 1.89z" opacity="1" data-original="#3a3a3a"></path><path fill="#3a3a3a" d="M256.454 241.109a2.461 2.461 0 0 0 2.398-3.034c-.51-2.136-12.792-52.606-40.065-79.88a2.462 2.462 0 1 0-3.483 3.483c26.28 26.28 38.634 77.031 38.757 77.541a2.463 2.463 0 0 0 2.393 1.89z" opacity="1" data-original="#3a3a3a"></path><path fill="#60b2ea" d="M76.41 374.824c.443.887.887 1.749 1.355 2.636a139.121 139.121 0 0 0 4.089 7.488c16.897 29.238 41.973 54.018 62.984 64.954 2.439 1.256 4.803 2.34 7.094 3.202 51.727 19.705 99.759-106.606 99.759-106.606v-70.472l-5.764-.764-145.722-19.213C53.477 285.903 55.99 333.541 76.41 374.824z" opacity="1" data-original="#60b2ea" class=""></path><path fill="#4ea7d8" d="M77.764 377.459a139.121 139.121 0 0 0 4.089 7.488c16.897 29.238 41.973 54.018 62.984 64.954 2.439 1.256 4.803 2.34 7.094 3.202 51.727 19.705 99.759-106.606 99.759-106.606v-47.934c-29.312 17.834-98.552 57.073-173.926 78.896z" opacity="1" data-original="#4ea7d8" class=""></path><path fill="#7ac0f9" d="M4.14 100.876c10.937 30.962 23.203 36.332 35.839 80.891 3.424 12.094 6.872 27.095 10.345 46.259a852.82 852.82 0 0 1 2.463 14.385c.714 4.36 2.685 8.424 5.764 11.602 6.946 7.119 22.981 17.489 59.806 24.065 29.312 5.222 71.802 8.055 133.332 4.902v-12.44s-48.081-90.645-116.336-153.973C101.928 85.53 63.675 61.046 23.845 56.933 18.402 56.391 12.81 57.5 8.45 60.8c-6.724 5.099-12.759 16.159-4.31 40.076z" opacity="1" data-original="#7ac0f9" class=""></path><path fill="#a9d8ff" d="M4.14 100.876c10.937 30.962 23.203 36.332 35.839 80.891 89.216 20.371 168.876 67.836 211.71 96.902v-8.128s-48.081-90.645-116.336-153.973C101.928 85.53 63.675 61.046 23.845 56.933 18.402 56.391 12.81 57.5 8.45 60.8c-6.724 5.099-12.759 16.159-4.31 40.076z" opacity="1" data-original="#a9d8ff" class=""></path><path fill="#3a3a3a" d="M144.837 449.909c2.439 1.256 4.803 2.34 7.094 3.202 51.727 19.705 99.759-106.607 99.759-106.607v-70.472l-5.764-.764c-10.543 48.969-38.007 139.417-101.089 174.641zM4.14 100.876c13.892 39.386 29.977 37.366 46.185 127.149 10.469-49.756-5.838-84.807-9.237-122.223-3.079-33.77 52.17-11.109 94.266 10.764-33.426-31.036-71.679-55.52-111.509-59.633-5.443-.542-11.035.567-15.395 3.867-6.724 5.099-12.759 16.159-4.31 40.076z" opacity="1" data-original="#3a3a3a"></path><path fill="#60b2ea" d="M435.59 374.824c-.443.887-.887 1.749-1.355 2.636a139.121 139.121 0 0 1-4.089 7.488c-16.897 29.238-41.973 54.018-62.984 64.954-2.439 1.256-4.803 2.34-7.094 3.202-51.727 19.705-99.759-106.606-99.759-106.606v-70.472l5.764-.764 145.722-19.213c46.728 29.854 44.215 77.492 23.795 118.775z" opacity="1" data-original="#60b2ea" class=""></path><path fill="#4ea7d8" d="M434.236 377.459a139.121 139.121 0 0 1-4.089 7.488c-16.897 29.238-41.973 54.018-62.984 64.954-2.439 1.256-4.803 2.34-7.094 3.202-51.727 19.705-99.759-106.606-99.759-106.606v-47.934c29.312 17.834 98.552 57.073 173.926 78.896z" opacity="1" data-original="#4ea7d8" class=""></path><path fill="#7ac0f9" d="M507.86 100.876c-10.937 30.962-23.203 36.332-35.839 80.891-3.424 12.094-6.872 27.095-10.345 46.259a852.82 852.82 0 0 0-2.463 14.385c-.714 4.36-2.685 8.424-5.764 11.602-6.946 7.119-22.981 17.489-59.806 24.065-29.312 5.222-71.802 8.055-133.332 4.902v-12.44s48.081-90.645 116.336-153.973c33.425-31.036 71.679-55.52 111.508-59.634 5.444-.542 11.035.567 15.395 3.867 6.724 5.099 12.759 16.159 4.31 40.076z" opacity="1" data-original="#7ac0f9" class=""></path><path fill="#a9d8ff" d="M507.86 100.876c-10.937 30.962-23.203 36.332-35.839 80.891-89.216 20.371-168.876 67.836-211.71 96.902v-8.128s48.081-90.645 116.336-153.973c33.425-31.036 71.679-55.52 111.508-59.634 5.444-.542 11.035.567 15.395 3.867 6.724 5.098 12.759 16.158 4.31 40.075z" opacity="1" data-original="#a9d8ff" class=""></path><path fill="#3a3a3a" d="M367.163 449.909c-2.439 1.256-4.803 2.34-7.094 3.202-51.727 19.705-99.759-106.607-99.759-106.607v-70.472l5.764-.764c10.543 48.969 38.007 139.417 101.089 174.641zM507.86 100.876c-13.892 39.386-29.977 37.366-46.185 127.149-10.469-49.756 5.838-84.807 9.237-122.223 3.079-33.77-52.17-11.109-94.266 10.764 33.425-31.036 71.679-55.52 111.508-59.634 5.444-.542 11.035.567 15.395 3.867 6.725 5.1 12.76 16.16 4.311 40.077z" opacity="1" data-original="#3a3a3a"></path><g fill="#282828"><ellipse cx="256" cy="307.727" rx="13.547" ry="64.043" fill="#282828" opacity="1" data-original="#282828" class=""></ellipse><circle cx="256" cy="236.295" r="11.084" fill="#282828" opacity="1" data-original="#282828" class=""></circle></g></g></switch></g></svg>